name Walk2.mot
datacolumns 19
datarows 27
range 0.33500000 0.36100000
endheader

                time	   L_ground_force_vx	   L_ground_force_vy	   L_ground_force_vz	   L_ground_force_px	   L_ground_force_py	   L_ground_force_pz	   R_ground_force_vx	   R_ground_force_vy	   R_ground_force_vz	   R_ground_force_px	   R_ground_force_py	   R_ground_force_pz	   L_ground_torque_x	   L_ground_torque_y	   L_ground_torque_z	   R_ground_torque_x	   R_ground_torque_y	   R_ground_torque_z	
          0.33500000	          0.00000000	          0.00000000	          0.00000000	          0.00000000	          0.00000000	          0.00000000	          0.00000000	          0.00000000	          0.00000000	          0.00000000	          0.00000000	          0.00000000	          0.00000000	          0.00000000	          0.00000000	          0.00000000	          0.00000000	          0.00000000	
          0.33600000	          0.00000000	          0.00000000	          0.00000000	          0.00000000	          0.00000000	          0.00000000	          0.00000000	          0.00000000	          0.00000000	          0.00000000	          0.00000000	          0.00000000	          0.00000000	          0.00000000	          0.00000000	          0.00000000	          0.00000000	          0.00000000	
          0.33700000	          0.00000000	          0.00000000	          0.00000000	          0.00000000	          0.00000000	          0.00000000	          0.00000000	          0.00000000	          0.00000000	          0.00000000	          0.00000000	          0.00000000	          0.00000000	          0.00000000	          0.00000000	          0.00000000	          0.00000000	          0.00000000	
          0.33800000	          0.00000000	          0.00000000	          0.00000000	          0.00000000	          0.00000000	          0.00000000	          0.00000000	          0.00000000	          0.00000000	          0.00000000	          0.00000000	          0.00000000	          0.00000000	          0.00000000	          0.00000000	          0.00000000	          0.00000000	          0.00000000	
          0.33900000	          0.00000000	          0.00000000	          0.00000000	          0.00000000	          0.00000000	          0.00000000	          0.00000000	          0.00000000	          0.00000000	          0.00000000	          0.00000000	          0.00000000	          0.00000000	          0.00000000	          0.00000000	          0.00000000	          0.00000000	          0.00000000	
          0.34000000	          0.00000000	          0.00000000	          0.00000000	          0.00000000	          0.00000000	          0.00000000	          0.00000000	          0.00000000	          0.00000000	          0.00000000	          0.00000000	          0.00000000	          0.00000000	          0.00000000	          0.00000000	          0.00000000	          0.00000000	          0.00000000	
          0.34100000	          0.00000000	          0.00000000	          0.00000000	          0.00000000	          0.00000000	          0.00000000	          0.00000000	          0.00000000	          0.00000000	          0.00000000	          0.00000000	          0.00000000	          0.00000000	          0.00000000	          0.00000000	          0.00000000	          0.00000000	          0.00000000	
          0.34200000	          0.00000000	          0.00000000	          0.00000000	          0.00000000	          0.00000000	          0.00000000	          0.00000000	          0.00000000	          0.00000000	          0.00000000	          0.00000000	          0.00000000	          0.00000000	          0.00000000	          0.00000000	          0.00000000	          0.00000000	          0.00000000	
          0.34300000	         -7.96010615	         16.87715995	          1.07001183	         -0.39750150	          0.00000000	         -0.00803912	          0.00000000	          0.00000000	          0.00000000	          0.00000000	          0.00000000	          0.00000000	          0.00000000	          0.28615222	          0.00000000	          0.00000000	          0.00000000	          0.00000000	
          0.34400000	        -12.42426235	         29.74330651	          1.87873689	         -0.40782840	          0.00000000	         -0.01548854	          0.00000000	          0.00000000	          0.00000000	          0.00000000	          0.00000000	          0.00000000	          0.00000000	          0.35863498	          0.00000000	          0.00000000	          0.00000000	          0.00000000	
          0.34500000	        -17.32176335	         46.60370572	          2.91170633	         -0.41621915	          0.00000000	         -0.02070324	          0.00000000	          0.00000000	          0.00000000	          0.00000000	          0.00000000	          0.00000000	          0.00000000	          0.41972428	          0.00000000	          0.00000000	          0.00000000	          0.00000000	
          0.34600000	        -22.37147434	         67.78326271	          4.15917599	         -0.42311333	          0.00000000	         -0.02436079	          0.00000000	          0.00000000	          0.00000000	          0.00000000	          0.00000000	          0.00000000	          0.00000000	          0.47408335	          0.00000000	          0.00000000	          0.00000000	          0.00000000	
          0.34700000	        -27.26379552	         93.07950931	          5.57371652	         -0.42844012	          0.00000000	         -0.02689861	          0.00000000	          0.00000000	          0.00000000	          0.00000000	          0.00000000	          0.00000000	          0.00000000	          0.51782157	          0.00000000	          0.00000000	          0.00000000	          0.00000000	
          0.34800000	        -31.59844995	        121.35063424	          7.03917592	         -0.43228867	          0.00000000	         -0.02872838	          0.00000000	          0.00000000	          0.00000000	          0.00000000	          0.00000000	          0.00000000	          0.00000000	          0.53845847	          0.00000000	          0.00000000	          0.00000000	          0.00000000	
          0.34900000	        -34.96002988	        150.63941073	          8.37364716	         -0.43492016	          0.00000000	         -0.03006638	          0.00000000	          0.00000000	          0.00000000	          0.00000000	          0.00000000	          0.00000000	          0.00000000	          0.53077090	          0.00000000	          0.00000000	          0.00000000	          0.00000000	
          0.35000000	        -37.07600236	        178.76464125	          9.37903932	         -0.43663640	          0.00000000	         -0.03096261	          0.00000000	          0.00000000	          0.00000000	          0.00000000	          0.00000000	          0.00000000	          0.00000000	          0.50452275	          0.00000000	          0.00000000	          0.00000000	          0.00000000	
          0.35100000	        -37.90977496	        204.00560209	          9.89723688	         -0.43767795	          0.00000000	         -0.03148325	          0.00000000	          0.00000000	          0.00000000	          0.00000000	          0.00000000	          0.00000000	          0.00000000	          0.47136648	          0.00000000	          0.00000000	          0.00000000	          0.00000000	
          0.35200000	        -37.62078185	        225.49008133	          9.82658298	         -0.43820337	          0.00000000	         -0.03177941	          0.00000000	          0.00000000	          0.00000000	          0.00000000	          0.00000000	          0.00000000	          0.00000000	          0.43081581	          0.00000000	          0.00000000	          0.00000000	          0.00000000	
          0.35300000	        -36.48407370	        243.15961823	          9.11749426	         -0.43833932	          0.00000000	         -0.03202718	          0.00000000	          0.00000000	          0.00000000	          0.00000000	          0.00000000	          0.00000000	          0.00000000	          0.37843438	          0.00000000	          0.00000000	          0.00000000	          0.00000000	
          0.35400000	        -34.83860109	        257.48365250	          7.78256622	         -0.43823939	          0.00000000	         -0.03233002	          0.00000000	          0.00000000	          0.00000000	          0.00000000	          0.00000000	          0.00000000	          0.00000000	          0.31991968	          0.00000000	          0.00000000	          0.00000000	          0.00000000	
          0.35500000	        -33.02024278	        269.18555476	          5.90614844	         -0.43808073	          0.00000000	         -0.03265083	          0.00000000	          0.00000000	          0.00000000	          0.00000000	          0.00000000	          0.00000000	          0.00000000	          0.26590168	          0.00000000	          0.00000000	          0.00000000	          0.00000000	
          0.35600000	        -31.28146822	        279.08574036	          3.62655253	         -0.43798636	          0.00000000	         -0.03287122	          0.00000000	          0.00000000	          0.00000000	          0.00000000	          0.00000000	          0.00000000	          0.00000000	          0.21876189	          0.00000000	          0.00000000	          0.00000000	          0.00000000	
          0.35700000	        -29.77468711	        287.99518396	          1.10180534	         -0.43797102	          0.00000000	         -0.03292957	          0.00000000	          0.00000000	          0.00000000	          0.00000000	          0.00000000	          0.00000000	          0.00000000	          0.17205595	          0.00000000	          0.00000000	          0.00000000	          0.00000000	
          0.35800000	        -28.59657629	        296.59026611	         -1.51488293	         -0.43798906	          0.00000000	         -0.03286114	          0.00000000	          0.00000000	          0.00000000	          0.00000000	          0.00000000	          0.00000000	          0.00000000	          0.11716489	          0.00000000	          0.00000000	          0.00000000	          0.00000000	
          0.35900000	        -27.81680674	        305.30951247	         -4.08693792	         -0.43800431	          0.00000000	         -0.03273343	          0.00000000	          0.00000000	          0.00000000	          0.00000000	          0.00000000	          0.00000000	          0.00000000	          0.04629250	          0.00000000	          0.00000000	          0.00000000	          0.00000000	
          0.36000000	        -27.47702748	        314.34243529	         -6.50380758	         -0.43800190	          0.00000000	         -0.03259113	          0.00000000	          0.00000000	          0.00000000	          0.00000000	          0.00000000	          0.00000000	          0.00000000	         -0.04178643	          0.00000000	          0.00000000	          0.00000000	          0.00000000	
          0.36100000	        -27.59777735	        323.68902381	         -8.68740401	         -0.43797742	          0.00000000	         -0.03244424	          0.00000000	          0.00000000	          0.00000000	          0.00000000	          0.00000000	          0.00000000	          0.00000000	         -0.13367322	          0.00000000	          0.00000000	          0.00000000	          0.00000000	
